<svg width="51" height="51" viewBox="0 0 51 51" fill="none" xmlns="http://www.w3.org/2000/svg">
<path d="M25.4457 0.922119C11.7197 0.922119 0.592773 12.1149 0.592773 25.9221C0.592773 39.7294 11.7197 50.9221 25.4457 50.9221C39.1717 50.9221 50.2986 39.7294 50.2986 25.9221C50.2986 12.1149 39.1717 0.922119 25.4457 0.922119ZM14.2365 20.7657C15.264 20.3487 16.1564 20.254 17.1251 20.254C21.9117 20.254 25.8044 24.1713 25.8044 28.9846C25.8044 30.0153 25.6133 31.0446 25.2355 32.0457C24.9165 32.6742 24.2947 33.0586 23.6067 33.0586C23.1112 33.0586 22.6482 32.8634 22.2998 32.5085C21.9587 32.1625 21.775 31.7041 21.7808 31.2205C21.7838 30.9632 21.8455 30.7444 21.9381 30.4989C21.9381 30.4989 22.0278 30.1721 22.041 30.1174C22.1263 29.7462 22.1689 29.3647 22.1689 28.9832C22.1689 26.1839 19.905 23.908 17.1237 23.908C16.762 23.908 16.3901 23.9509 16.0182 24.0352C15.9138 24.053 15.8021 24.0811 15.6771 24.1121C14.3923 24.4315 13.7072 23.843 13.397 23.1006C13.0986 22.3834 13.2471 21.3039 14.235 20.7657H14.2365ZM14.1865 37.3692C13.9851 37.3692 13.7763 37.3278 13.5499 37.2435C10.4746 35.8343 8.46645 32.7466 8.43852 29.3691C8.43852 29.3617 8.43852 14.7752 8.43852 14.7752C8.43852 13.7667 9.2544 12.9474 10.2555 12.9474C11.2566 12.9474 12.0725 13.7682 12.0725 14.7752C12.0725 14.7752 12.0799 29.2567 12.0799 29.2967C12.0799 31.1229 13.0692 32.8176 14.6598 33.7182C14.7245 33.7625 14.8083 33.8099 14.898 33.8616C15.6992 34.3156 16.027 34.7947 16.027 35.5163C16.027 36.5367 15.2023 37.3678 14.1865 37.3678V37.3692ZM35.6921 38.1766C33.3341 38.1766 31.129 37.0173 29.6236 34.9914C28.1183 37.0173 25.9147 38.1766 23.5567 38.1766C19.2464 38.1766 15.7256 34.3052 15.6874 29.5362L15.683 28.4508C15.683 27.4512 16.493 26.6364 17.4882 26.6364C18.4835 26.6364 19.2935 27.4512 19.2935 28.4523V29.4579C19.2935 32.2631 21.206 34.5448 23.5552 34.5448C25.9044 34.5448 27.8155 32.2631 27.8155 29.4579C27.8155 29.4401 27.8199 21.7165 27.8199 21.7165C27.8199 20.7154 28.6299 19.9006 29.6251 19.9006C30.6203 19.9006 31.4304 20.7154 31.4304 21.7165V29.4579C31.4304 32.2631 33.3414 34.5448 35.6921 34.5448C38.0427 34.5448 39.9523 32.2631 39.9523 29.4579V21.7165C39.9523 20.7154 40.7623 19.9006 41.7576 19.9006C42.7528 19.9006 43.5628 20.7154 43.5628 21.7165V29.4579C43.5628 34.2653 40.0317 38.1766 35.6921 38.1766Z" fill="white"/>
</svg>
