<svg width="269" height="50" viewBox="0 0 269 50" fill="none" xmlns="http://www.w3.org/2000/svg">
<path d="M71.1203 11.2637C77.0006 11.2637 81.1667 15.6808 81.1667 21.5589C81.1667 27.437 76.9991 31.8541 71.1203 31.8541C67.4701 31.8541 64.4006 30.0781 62.6395 27.2876L62.3675 31.4548H60.9357V4.6507H62.7203V15.6971C64.4932 12.9806 67.5245 11.2652 71.1203 11.2652V11.2637ZM79.3482 21.5589C79.3482 16.6243 75.8289 13.0087 71.0027 13.0087C66.1765 13.0087 62.6204 16.6804 62.6204 21.5589C62.6204 26.4373 66.2147 30.1091 71.0027 30.1091C75.7907 30.1091 79.3482 26.4935 79.3482 21.5589Z" fill="white"/>
<path d="M91.8761 31.8541C86.7338 31.8541 83.4482 28.4322 83.4482 23.1382V11.6645H85.2329V22.8839C85.2329 27.3483 87.7805 30.1091 91.8747 30.1091C95.9688 30.1091 98.5164 27.3305 98.5164 22.8839V11.6645H100.301V23.1382C100.301 28.4322 97.0331 31.8541 91.8732 31.8541H91.8761Z" fill="white"/>
<path d="M110.087 31.8541C105.583 31.8541 102.738 29.5649 102.475 25.8488H104.226C104.489 28.6126 106.731 30.1772 110.137 30.1772C113.543 30.1772 115.857 28.6023 115.857 26.1194C115.857 23.051 112.9 22.4935 109.843 21.9744C106.452 21.3889 102.859 20.7515 102.859 16.679C102.859 13.4508 105.729 11.2623 109.976 11.2623C114.223 11.2623 116.963 13.4641 117.13 16.9836H115.43C115.262 14.4002 113.248 12.8889 109.942 12.8889C106.636 12.8889 104.594 14.3854 104.594 16.6272C104.594 19.3156 107.25 19.7607 110.27 20.262C113.696 20.8314 117.626 21.5131 117.626 26.0499C117.626 29.5516 114.611 31.8511 110.087 31.8511V31.8541Z" fill="white"/>
<path d="M120.941 11.6645H122.725V31.4548H120.941V11.6645Z" fill="white"/>
<path d="M136.185 11.2652C140.907 11.2652 143.861 14.6812 143.861 19.7001V31.4548H142.076V20.0727C142.076 15.5803 139.743 12.9259 135.781 12.9259C131.819 12.9259 128.81 16.2028 128.81 20.1629V31.4548H127.025V11.6645H128.356L128.709 15.6734C130.129 13.0205 132.932 11.2637 136.185 11.2637V11.2652Z" fill="white"/>
<path d="M165.796 22.1889H147.933C148.221 26.813 151.576 30.0914 156.078 30.0914C159.308 30.0914 161.891 28.4485 163.351 25.6847H165.24C163.443 29.6507 160.181 31.8526 156.078 31.8526C150.438 31.8526 146.16 27.4178 146.16 21.5382C146.16 15.6586 150.436 11.2623 156.078 11.2623C161.72 11.2623 165.828 15.7592 165.828 21.4894C165.828 21.7157 165.812 21.9611 165.794 22.1859L165.796 22.1889ZM147.964 20.5119H164.068C163.637 15.9736 160.339 12.9747 156.08 12.9747C151.821 12.9747 148.406 16.089 147.964 20.5119Z" fill="white"/>
<path d="M174.936 31.8541C170.432 31.8541 167.587 29.5649 167.324 25.8488H169.075C169.338 28.6126 171.58 30.1772 174.986 30.1772C178.392 30.1772 180.706 28.6023 180.706 26.1194C180.706 23.051 177.749 22.4935 174.692 21.9744C171.301 21.3889 167.708 20.7515 167.708 16.679C167.708 13.4508 170.578 11.2623 174.825 11.2623C179.072 11.2623 181.812 13.4641 181.979 16.9836H180.279C180.111 14.4002 178.097 12.8889 174.791 12.8889C171.485 12.8889 169.443 14.3854 169.443 16.6272C169.443 19.3156 172.099 19.7607 175.119 20.262C178.545 20.8314 182.475 21.5131 182.475 26.0499C182.475 29.5516 179.46 31.8511 174.936 31.8511V31.8541Z" fill="white"/>
<path d="M191.623 31.8541C187.119 31.8541 184.274 29.5649 184.011 25.8488H185.762C186.025 28.6126 188.267 30.1772 191.673 30.1772C195.079 30.1772 197.393 28.6023 197.393 26.1194C197.393 23.051 194.435 22.4935 191.379 21.9744C187.988 21.3889 184.395 20.7515 184.395 16.679C184.395 13.4508 187.264 11.2623 191.511 11.2623C195.758 11.2623 198.499 13.4641 198.666 16.9836H196.965C196.798 14.4002 194.784 12.8889 191.478 12.8889C188.171 12.8889 186.129 14.3854 186.129 16.6272C186.129 19.3156 188.786 19.7607 191.805 20.262C195.232 20.8314 199.162 21.5131 199.162 26.0499C199.162 29.5516 196.146 31.8511 191.623 31.8511V31.8541Z" fill="white"/>
<path d="M229.455 11.6645L222.872 31.4533H219.594L214.521 19.4029L209.476 31.4533H206.197L199.608 11.6645H203.778L208.217 24.9985L213.864 11.8789H215.171L220.894 25.0991L225.402 11.6645H229.451H229.455Z" fill="white"/>
<path d="M231.072 11.6645H235.116V31.4548H231.072V11.6645Z" fill="white"/>
<path d="M249.516 11.5551V15.3969H247.381C244.037 15.3969 242.368 17.3163 242.368 20.9009V31.4548H238.324V11.6645H241.06L241.744 14.3662C243.15 12.4896 245.081 11.5551 247.768 11.5551H249.516Z" fill="white"/>
<path d="M269 21.6062C269 22.0513 268.963 22.4964 268.916 22.9415H252.948C253.454 26.149 255.749 28.1202 258.97 28.1202C261.32 28.1202 263.224 27.0274 264.263 25.2233H268.521C266.955 29.4008 263.364 31.9369 258.97 31.9369C253.219 31.9369 248.863 27.471 248.863 21.5604C248.863 15.6497 253.209 11.1839 258.97 11.1839C264.731 11.1839 269 15.8494 269 21.6077V21.6062ZM258.971 14.8556C255.93 14.8556 253.713 16.7011 253.051 19.6365H264.947C264.221 16.6302 261.969 14.8556 258.971 14.8556Z" fill="white"/>
<path d="M93.6373 43.4195H90.0871L89.3403 45.2325H88.5876L91.5086 38.1359H92.1613L95.1618 45.2325H94.3958L93.6373 43.4195ZM90.3546 42.7659H93.3668L91.8453 39.1207L90.3546 42.7659Z" fill="white"/>
<path d="M103.99 43.2879C103.99 44.3777 103.097 45.2325 101.876 45.2325H99.0971V38.1359H101.848C102.988 38.1359 103.795 38.9078 103.795 39.9178C103.795 40.5862 103.419 41.2398 102.852 41.5326C103.54 41.7973 103.988 42.4849 103.988 43.2879H103.99ZM99.7969 38.8324V41.1969H101.878C102.558 41.1969 103.075 40.6557 103.075 40.0095C103.075 39.3632 102.539 38.8309 101.856 38.8309H99.7969V38.8324ZM103.262 43.2095C103.262 42.4672 102.674 41.8934 101.908 41.8934H99.7969V44.5286H101.892C102.669 44.5286 103.26 43.9652 103.26 43.2095H103.262Z" fill="white"/>
<path d="M109.812 44.5507V45.2325H105.771V38.1359H109.702V38.8117H106.478V41.2354H109.441V41.8964H106.478V44.5507H109.814H109.812Z" fill="white"/>
<path d="M113.967 42.3592H112.181V45.2325H111.474V38.1359H114.114C115.408 38.1359 116.362 39.0202 116.362 40.2564C116.362 41.2753 115.693 42.062 114.717 42.2912L116.45 45.2339H115.653L113.967 42.3607V42.3592ZM112.181 41.6834H114.079C115.009 41.6834 115.641 41.083 115.641 40.249C115.641 39.415 115.005 38.8117 114.079 38.8117H112.181V41.6834Z" fill="white"/>
<path d="M119.841 41.8919H118.814V45.2339H118.107V38.1373H118.814V41.225H119.838L122.252 38.1373H123.155L120.478 41.5459L123.399 45.2339H122.49L119.843 41.8919H119.841Z" fill="white"/>
<path d="M123.888 43.0779H124.609C124.609 44.0361 125.367 44.6232 126.445 44.6232C127.421 44.6232 128.16 44.0864 128.16 43.2568C128.16 42.3326 127.274 42.13 126.314 41.9082C125.223 41.6538 124.028 41.3714 124.028 39.9887C124.028 38.7909 124.954 38.0471 126.387 38.0471C127.821 38.0471 128.692 38.853 128.692 40.1085H127.993C127.993 39.2508 127.317 38.7303 126.373 38.7303C125.429 38.7303 124.735 39.2035 124.735 39.9606C124.735 40.8346 125.605 41.0357 126.554 41.256C127.665 41.5207 128.888 41.8091 128.888 43.2509C128.888 44.5492 127.841 45.3212 126.451 45.3212C124.919 45.3212 123.888 44.4487 123.888 43.0779Z" fill="white"/>
<path d="M135.886 38.1359V45.2325H135.178V41.9067H131.25V45.2325H130.543V38.1359H131.25V41.2235H135.178V38.1359H135.886Z" fill="white"/>
<path d="M138.063 38.1359H138.77V45.2325H138.063V38.1359Z" fill="white"/>
<path d="M143.439 42.3592H141.653V45.2325H140.945V38.1359H143.586C144.879 38.1359 145.833 39.0202 145.833 40.2564C145.833 41.2753 145.165 42.062 144.188 42.2912L145.922 45.2339H145.125L143.439 42.3607V42.3592ZM141.653 41.6834H143.55C144.481 41.6834 145.113 41.083 145.113 40.249C145.113 39.415 144.477 38.8117 143.55 38.8117H141.653V41.6834Z" fill="white"/>
<path d="M151.62 44.5507V45.2325H147.578V38.1359H151.509V38.8117H148.286V41.2354H151.248V41.8964H148.286V44.5507H151.621H151.62Z" fill="white"/>
<path d="M161.496 38.1359V45.2325H160.788V41.9067H156.86V45.2325H156.153V38.1359H156.86V41.2235H160.788V38.1359H161.496Z" fill="white"/>
<path d="M167.92 43.4195H164.37L163.623 45.2325H162.87L165.791 38.1359H166.442L169.443 45.2325H168.677L167.918 43.4195H167.92ZM164.637 42.7659H167.649L166.128 39.1207L164.637 42.7659Z" fill="white"/>
<path d="M174.478 38.8043H172.281V45.2325H171.574V38.8043H169.378V38.1359H174.476V38.8043H174.478Z" fill="white"/>
<path d="M181.211 38.1359V45.2325H180.504V41.9067H176.576V45.2325H175.868V38.1359H176.576V41.2235H180.504V38.1359H181.211Z" fill="white"/>
<path d="M187.635 43.4195H184.085L183.338 45.2325H182.585L185.506 38.1359H186.157L189.158 45.2325H188.392L187.633 43.4195H187.635ZM184.352 42.7659H187.364L185.843 39.1207L184.352 42.7659Z" fill="white"/>
<path d="M199.213 38.1359L196.977 45.2325H196.361L194.319 39.8379L192.321 45.2325H191.705L189.419 38.1359H190.172L192.039 44.0554L194.166 38.3163H194.465L196.643 44.0598L198.469 38.1373H199.215L199.213 38.1359Z" fill="white"/>
<path d="M204.538 43.4195H200.987L200.241 45.2325H199.488L202.409 38.1359H203.062L206.062 45.2325H205.296L204.538 43.4195ZM201.255 42.7659H204.267L202.746 39.1207L201.255 42.7659Z" fill="white"/>
<path d="M209.327 42.4124V45.2324H208.599V42.4139L205.981 38.1373H206.757L208.968 41.7411L211.193 38.1373H211.969L209.327 42.4139V42.4124Z" fill="white"/>
<path d="M215.531 41.6878C215.531 39.5614 217.043 38.0279 219.14 38.0279C220.747 38.0279 222.024 38.9669 222.453 40.4501H221.73C221.324 39.3706 220.366 38.7229 219.14 38.7229C217.462 38.7229 216.251 39.9547 216.251 41.6864C216.251 43.418 217.46 44.6439 219.14 44.6439C220.398 44.6439 221.374 43.9563 221.771 42.8073H222.492C222.065 44.3688 220.779 45.3404 219.138 45.3404C217.039 45.3404 215.529 43.8128 215.529 41.6864L215.531 41.6878Z" fill="white"/>
<path d="M223.534 41.6878C223.534 39.5954 225.077 38.0205 227.208 38.0205C229.338 38.0205 230.881 39.5924 230.881 41.6878C230.881 43.7833 229.338 45.3493 227.208 45.3493C225.077 45.3493 223.534 43.7773 223.534 41.6878ZM230.162 41.6878C230.162 39.9902 228.916 38.717 227.209 38.717C225.502 38.717 224.256 39.9991 224.256 41.6878C224.256 43.3766 225.502 44.6528 227.209 44.6528C228.916 44.6528 230.162 43.384 230.162 41.6878Z" fill="white"/>
<path d="M239.924 45.2325L238.939 39.3958L236.419 45.0062H236.219L233.702 39.4017L232.709 45.2325H231.988L233.194 38.1359H233.867L236.31 43.6487L238.765 38.1359H239.453L240.642 45.2325H239.922H239.924Z" fill="white"/>
<path d="M247.072 40.3643C247.072 41.639 246.089 42.5943 244.772 42.5943H242.997V45.2339H242.29V38.1373H244.77C246.077 38.1373 247.071 39.0867 247.071 40.3643H247.072ZM246.352 40.3643C246.352 39.483 245.673 38.8264 244.737 38.8264H242.997V41.9052H244.737C245.673 41.9052 246.352 41.2487 246.352 40.3643Z" fill="white"/>
<path d="M252.332 43.4195H248.782L248.035 45.2325H247.283L250.204 38.1359H250.856L253.857 45.2325H253.091L252.332 43.4195ZM249.05 42.7659H252.062L250.54 39.1207L249.05 42.7659Z" fill="white"/>
<path d="M260.766 38.1359V45.2325H260.169L255.925 39.3839V45.2325H255.233V38.1359H255.872L260.074 43.9371V38.1359H260.766Z" fill="white"/>
<path d="M265.589 42.4124V45.2324H264.862V42.4139L262.244 38.1373H263.02L265.231 41.7411L267.455 38.1373H268.231L265.589 42.4139V42.4124Z" fill="white"/>
<path d="M24.8529 0C11.1269 0 0 11.1928 0 25C0 38.8072 11.1269 50 24.8529 50C38.5789 50 49.7059 38.8072 49.7059 25C49.7059 11.1928 38.5789 0 24.8529 0ZM13.6437 19.8435C14.6713 19.4265 15.5636 19.3319 16.5324 19.3319C21.3189 19.3319 25.2116 23.2491 25.2116 28.0625C25.2116 29.0932 25.0205 30.1224 24.6427 31.1236C24.3237 31.752 23.7019 32.1365 23.0139 32.1365C22.5185 32.1365 22.0554 31.9413 21.707 31.5864C21.3659 31.2404 21.1822 30.782 21.1881 30.2984C21.191 30.0411 21.2527 29.8223 21.3454 29.5768C21.3454 29.5768 21.435 29.25 21.4483 29.1953C21.5335 28.8241 21.5762 28.4426 21.5762 28.061C21.5762 25.2617 19.3123 22.9859 16.5309 22.9859C16.1693 22.9859 15.7973 23.0288 15.4254 23.1131C15.321 23.1308 15.2093 23.1589 15.0843 23.19C13.7995 23.5094 13.1145 22.9209 12.8043 22.1785C12.5059 21.4613 12.6543 20.3818 13.6422 19.8435H13.6437ZM13.5937 36.4471C13.3923 36.4471 13.1836 36.4057 12.9572 36.3214C9.88178 34.9122 7.87367 31.8245 7.84574 28.447C7.84574 28.4396 7.84574 13.8531 7.84574 13.8531C7.84574 12.8446 8.66163 12.0253 9.66275 12.0253C10.6639 12.0253 11.4797 12.846 11.4797 13.8531C11.4797 13.8531 11.4871 28.3346 11.4871 28.3745C11.4871 30.2008 12.4765 31.8955 14.0671 32.7961C14.1317 32.8404 14.2155 32.8877 14.3052 32.9395C15.1064 33.3935 15.4342 33.8726 15.4342 34.5942C15.4342 35.6146 14.6095 36.4456 13.5937 36.4456V36.4471ZM35.0993 37.2545C32.7413 37.2545 30.5362 36.0952 29.0309 34.0693C27.5255 36.0952 25.3219 37.2545 22.9639 37.2545C18.6537 37.2545 15.1329 33.3831 15.0946 28.6141L15.0902 27.5287C15.0902 26.529 15.9002 25.7142 16.8955 25.7142C17.8907 25.7142 18.7007 26.529 18.7007 27.5302V28.5357C18.7007 31.3409 20.6133 33.6227 22.9624 33.6227C25.3116 33.6227 27.2227 31.3409 27.2227 28.5357C27.2227 28.518 27.2271 20.7944 27.2271 20.7944C27.2271 19.7933 28.0371 18.9785 29.0323 18.9785C30.0276 18.9785 30.8376 19.7933 30.8376 20.7944V28.5357C30.8376 31.3409 32.7487 33.6227 35.0993 33.6227C37.4499 33.6227 39.3596 31.3409 39.3596 28.5357V20.7944C39.3596 19.7933 40.1696 18.9785 41.1648 18.9785C42.16 18.9785 42.97 19.7933 42.97 20.7944V28.5357C42.97 33.3432 39.4389 37.2545 35.0993 37.2545Z" fill="white"/>
</svg>
